<mxfile host="65bd71144e">
    <diagram id="Hs-1hE3gFYiJ62f75kAm" name="第1頁">
        <mxGraphModel dx="1066" dy="790" grid="1" gridSize="10" guides="1" tooltips="1" connect="1" arrows="1" fold="1" page="1" pageScale="1" pageWidth="1200" pageHeight="1600" math="0" shadow="0">
            <root>
                <mxCell id="0"/>
                <mxCell id="1" parent="0"/>
                <mxCell id="2" value="&lt;span style=&quot;color: rgb(0 , 0 , 0)&quot;&gt;New User Registered&lt;/span&gt;" style="whiteSpace=wrap;html=1;aspect=fixed;fontColor=#000000;fillColor=#fa6800;strokeColor=#C73500;" parent="1" vertex="1">
                    <mxGeometry x="220" y="70" width="80" height="80" as="geometry"/>
                </mxCell>
                <mxCell id="3" value="Register New User" style="whiteSpace=wrap;html=1;aspect=fixed;fillColor=#1ba1e2;fontColor=#000000;strokeColor=#006EAF;" parent="1" vertex="1">
                    <mxGeometry x="40" y="70" width="80" height="80" as="geometry"/>
                </mxCell>
                <mxCell id="4" value="User Registration" style="whiteSpace=wrap;html=1;aspect=fixed;fillColor=#e3c800;fontColor=#000000;strokeColor=#B09500;" parent="1" vertex="1">
                    <mxGeometry x="130" y="160" width="80" height="80" as="geometry"/>
                </mxCell>
                <mxCell id="5" value="Confirm User Registration" style="whiteSpace=wrap;html=1;aspect=fixed;fontColor=#000000;fillColor=#1ba1e2;strokeColor=#006EAF;" parent="1" vertex="1">
                    <mxGeometry x="40" y="160" width="80" height="80" as="geometry"/>
                </mxCell>
                <mxCell id="6" value="&lt;span style=&quot;color: rgb(0 , 0 , 0)&quot;&gt;User Registration Confirmed&lt;/span&gt;" style="whiteSpace=wrap;html=1;aspect=fixed;fontColor=#000000;fillColor=#fa6800;strokeColor=#C73500;" parent="1" vertex="1">
                    <mxGeometry x="220" y="160" width="80" height="80" as="geometry"/>
                </mxCell>
                <mxCell id="7" value="&lt;span style=&quot;color: rgb(0 , 0 , 0)&quot;&gt;User Registration Expired&lt;/span&gt;" style="whiteSpace=wrap;html=1;aspect=fixed;fontColor=#000000;fillColor=#fa6800;strokeColor=#C73500;" parent="1" vertex="1">
                    <mxGeometry x="220" y="250" width="80" height="80" as="geometry"/>
                </mxCell>
                <mxCell id="8" value="Create User" style="whiteSpace=wrap;html=1;aspect=fixed;fontColor=#000000;fillColor=#1ba1e2;strokeColor=#006EAF;" parent="1" vertex="1">
                    <mxGeometry x="330" y="70" width="80" height="80" as="geometry"/>
                </mxCell>
                <mxCell id="9" value="&lt;span style=&quot;color: rgb(0 , 0 , 0)&quot;&gt;User Created&lt;/span&gt;" style="whiteSpace=wrap;html=1;aspect=fixed;fontColor=#000000;fillColor=#fa6800;strokeColor=#C73500;" parent="1" vertex="1">
                    <mxGeometry x="510" y="70" width="80" height="80" as="geometry"/>
                </mxCell>
                <mxCell id="10" value="User" style="whiteSpace=wrap;html=1;aspect=fixed;fillColor=#e3c800;fontColor=#000000;strokeColor=#B09500;" parent="1" vertex="1">
                    <mxGeometry x="420" y="70" width="80" height="80" as="geometry"/>
                </mxCell>
                <mxCell id="11" value="Propose Meeting Group" style="whiteSpace=wrap;html=1;aspect=fixed;fontColor=#000000;fillColor=#1ba1e2;strokeColor=#006EAF;" parent="1" vertex="1">
                    <mxGeometry x="40" y="410" width="80" height="80" as="geometry"/>
                </mxCell>
                <mxCell id="12" value="&lt;span style=&quot;color: rgb(0 , 0 , 0)&quot;&gt;Meeting Group Proposed&lt;/span&gt;" style="whiteSpace=wrap;html=1;aspect=fixed;fillColor=#fa6800;fontColor=#000000;strokeColor=#C73500;" parent="1" vertex="1">
                    <mxGeometry x="220" y="410" width="80" height="80" as="geometry"/>
                </mxCell>
                <mxCell id="13" value="Meeting Group Proposal" style="whiteSpace=wrap;html=1;aspect=fixed;fillColor=#e3c800;fontColor=#000000;strokeColor=#B09500;" parent="1" vertex="1">
                    <mxGeometry x="130" y="510" width="80" height="80" as="geometry"/>
                </mxCell>
                <mxCell id="14" value="Request Meeting Group Proposal Verification" style="whiteSpace=wrap;html=1;aspect=fixed;fontColor=#000000;fillColor=#1ba1e2;strokeColor=#006EAF;" parent="1" vertex="1">
                    <mxGeometry x="40" y="510" width="80" height="80" as="geometry"/>
                </mxCell>
                <mxCell id="15" value="&lt;span style=&quot;color: rgb(0 , 0 , 0)&quot;&gt;Meeting Group Proposal Verification Requested&lt;/span&gt;" style="whiteSpace=wrap;html=1;aspect=fixed;fontColor=#000000;fillColor=#fa6800;strokeColor=#C73500;" parent="1" vertex="1">
                    <mxGeometry x="220" y="510" width="80" height="80" as="geometry"/>
                </mxCell>
                <mxCell id="16" value="Accept Meeting Group Proposal" style="whiteSpace=wrap;html=1;aspect=fixed;fontColor=#000000;fillColor=#1ba1e2;strokeColor=#006EAF;" parent="1" vertex="1">
                    <mxGeometry x="40" y="600" width="80" height="80" as="geometry"/>
                </mxCell>
                <mxCell id="17" value="&lt;span style=&quot;color: rgb(0 , 0 , 0)&quot;&gt;Meeting Group Proposal Accepted&lt;/span&gt;" style="whiteSpace=wrap;html=1;aspect=fixed;fontColor=#000000;fillColor=#fa6800;strokeColor=#C73500;" parent="1" vertex="1">
                    <mxGeometry x="220" y="600" width="80" height="80" as="geometry"/>
                </mxCell>
                <mxCell id="18" value="Reject Meeting Group Proposal" style="whiteSpace=wrap;html=1;aspect=fixed;fontColor=#000000;fillColor=#1ba1e2;strokeColor=#006EAF;" parent="1" vertex="1">
                    <mxGeometry x="40" y="690" width="80" height="80" as="geometry"/>
                </mxCell>
                <mxCell id="19" value="&lt;span style=&quot;color: rgb(0 , 0 , 0)&quot;&gt;Meeting Group Proposal Rejected&lt;/span&gt;" style="whiteSpace=wrap;html=1;aspect=fixed;fontColor=#000000;fillColor=#fa6800;strokeColor=#C73500;" parent="1" vertex="1">
                    <mxGeometry x="220" y="690" width="80" height="80" as="geometry"/>
                </mxCell>
                <mxCell id="20" value="Create Meeting" style="whiteSpace=wrap;html=1;aspect=fixed;fontColor=#000000;fillColor=#1ba1e2;strokeColor=#006EAF;" parent="1" vertex="1">
                    <mxGeometry x="330" y="220" width="80" height="80" as="geometry"/>
                </mxCell>
                <mxCell id="21" value="Meeting" style="whiteSpace=wrap;html=1;aspect=fixed;fillColor=#e3c800;fontColor=#000000;strokeColor=#B09500;" parent="1" vertex="1">
                    <mxGeometry x="430" y="480" width="80" height="80" as="geometry"/>
                </mxCell>
                <mxCell id="22" value="&lt;span style=&quot;color: rgb(0 , 0 , 0)&quot;&gt;Meeting Created&lt;/span&gt;" style="whiteSpace=wrap;html=1;aspect=fixed;fontColor=#000000;fillColor=#fa6800;strokeColor=#C73500;" parent="1" vertex="1">
                    <mxGeometry x="520" y="220" width="80" height="80" as="geometry"/>
                </mxCell>
                <mxCell id="23" value="&lt;span style=&quot;color: rgb(0 , 0 , 0)&quot;&gt;Add Meeting Attendee&lt;/span&gt;" style="whiteSpace=wrap;html=1;aspect=fixed;fillColor=#1ba1e2;fontColor=#ffffff;strokeColor=#006EAF;" parent="1" vertex="1">
                    <mxGeometry x="330" y="310" width="80" height="80" as="geometry"/>
                </mxCell>
                <mxCell id="24" value="&lt;span style=&quot;color: rgb(0 , 0 , 0)&quot;&gt;Add Meeting Not Attendee&lt;/span&gt;" style="whiteSpace=wrap;html=1;aspect=fixed;fillColor=#1ba1e2;fontColor=#ffffff;strokeColor=#006EAF;" parent="1" vertex="1">
                    <mxGeometry x="330" y="400" width="80" height="80" as="geometry"/>
                </mxCell>
                <mxCell id="25" value="&lt;span style=&quot;color: rgb(0 , 0 , 0)&quot;&gt;Sign Up Member To Waitlist&lt;/span&gt;" style="whiteSpace=wrap;html=1;aspect=fixed;fillColor=#1ba1e2;fontColor=#ffffff;strokeColor=#006EAF;" parent="1" vertex="1">
                    <mxGeometry x="330" y="500" width="80" height="80" as="geometry"/>
                </mxCell>
                <mxCell id="26" value="&lt;span style=&quot;color: rgb(0 , 0 , 0)&quot;&gt;Sign Off Member From Waitlist&lt;/span&gt;" style="whiteSpace=wrap;html=1;aspect=fixed;fillColor=#1ba1e2;fontColor=#ffffff;strokeColor=#006EAF;" parent="1" vertex="1">
                    <mxGeometry x="330" y="590" width="80" height="80" as="geometry"/>
                </mxCell>
                <mxCell id="27" value="&lt;span style=&quot;color: rgb(0 , 0 , 0)&quot;&gt;Set Meeting Host Role&lt;/span&gt;" style="whiteSpace=wrap;html=1;aspect=fixed;fillColor=#1ba1e2;fontColor=#ffffff;strokeColor=#006EAF;" parent="1" vertex="1">
                    <mxGeometry x="330" y="680" width="80" height="80" as="geometry"/>
                </mxCell>
                <mxCell id="28" value="&lt;span style=&quot;color: rgb(0 , 0 , 0)&quot;&gt;Cancel Meeting&lt;/span&gt;" style="whiteSpace=wrap;html=1;aspect=fixed;fillColor=#1ba1e2;fontColor=#ffffff;strokeColor=#006EAF;" parent="1" vertex="1">
                    <mxGeometry x="330" y="780" width="80" height="80" as="geometry"/>
                </mxCell>
                <mxCell id="29" value="&lt;span style=&quot;color: rgb(0 , 0 , 0)&quot;&gt;Member To Waitlist Signed Up&lt;/span&gt;" style="whiteSpace=wrap;html=1;aspect=fixed;fillColor=#fa6800;fontColor=#000000;strokeColor=#C73500;" parent="1" vertex="1">
                    <mxGeometry x="520" y="500" width="80" height="80" as="geometry"/>
                </mxCell>
                <mxCell id="30" value="&lt;span style=&quot;color: rgb(0 , 0 , 0)&quot;&gt;Member From Waitlist Signed Off&lt;/span&gt;" style="whiteSpace=wrap;html=1;aspect=fixed;fillColor=#fa6800;fontColor=#000000;strokeColor=#C73500;" parent="1" vertex="1">
                    <mxGeometry x="520" y="590" width="80" height="80" as="geometry"/>
                </mxCell>
                <mxCell id="31" value="&lt;span style=&quot;color: rgb(0 , 0 , 0)&quot;&gt;Meeting Host Set&lt;/span&gt;" style="whiteSpace=wrap;html=1;aspect=fixed;fillColor=#fa6800;fontColor=#000000;strokeColor=#C73500;" parent="1" vertex="1">
                    <mxGeometry x="520" y="680" width="80" height="80" as="geometry"/>
                </mxCell>
                <mxCell id="32" value="&lt;span style=&quot;color: rgb(0 , 0 , 0)&quot;&gt;Meeting Canceled&lt;/span&gt;" style="whiteSpace=wrap;html=1;aspect=fixed;fillColor=#fa6800;fontColor=#000000;strokeColor=#C73500;" parent="1" vertex="1">
                    <mxGeometry x="520" y="780" width="80" height="80" as="geometry"/>
                </mxCell>
                <mxCell id="33" value="&lt;span style=&quot;color: rgb(0 , 0 , 0)&quot;&gt;Meeting Attendee Added&lt;/span&gt;" style="whiteSpace=wrap;html=1;aspect=fixed;fillColor=#fa6800;fontColor=#000000;strokeColor=#C73500;" parent="1" vertex="1">
                    <mxGeometry x="520" y="310" width="80" height="80" as="geometry"/>
                </mxCell>
                <mxCell id="34" value="&lt;span style=&quot;color: rgb(0 , 0 , 0)&quot;&gt;Meeting Not Attendee Added&lt;/span&gt;" style="whiteSpace=wrap;html=1;aspect=fixed;fillColor=#fa6800;fontColor=#000000;strokeColor=#C73500;" parent="1" vertex="1">
                    <mxGeometry x="520" y="400" width="80" height="80" as="geometry"/>
                </mxCell>
                <mxCell id="35" value="Meeting Fee Created" style="whiteSpace=wrap;html=1;aspect=fixed;fillColor=#fa6800;fontColor=#000000;strokeColor=#C73500;" parent="1" vertex="1">
                    <mxGeometry x="820" y="220" width="80" height="80" as="geometry"/>
                </mxCell>
                <mxCell id="36" value="Create Meeting Fee" style="whiteSpace=wrap;html=1;aspect=fixed;fontColor=#000000;fillColor=#1ba1e2;strokeColor=#006EAF;" parent="1" vertex="1">
                    <mxGeometry x="640" y="220" width="80" height="80" as="geometry"/>
                </mxCell>
                <mxCell id="37" value="Meeting Fee" style="whiteSpace=wrap;html=1;aspect=fixed;fillColor=#e3c800;fontColor=#000000;strokeColor=#B09500;" parent="1" vertex="1">
                    <mxGeometry x="730" y="220" width="80" height="80" as="geometry"/>
                </mxCell>
                <mxCell id="38" value="Meeting Fee Payment Created" style="whiteSpace=wrap;html=1;aspect=fixed;fillColor=#fa6800;fontColor=#000000;strokeColor=#C73500;" parent="1" vertex="1">
                    <mxGeometry x="830" y="470" width="80" height="80" as="geometry"/>
                </mxCell>
                <mxCell id="39" value="Create Meeting Fee Payemnt" style="whiteSpace=wrap;html=1;aspect=fixed;fontColor=#000000;fillColor=#1ba1e2;strokeColor=#006EAF;" parent="1" vertex="1">
                    <mxGeometry x="640" y="470" width="80" height="80" as="geometry"/>
                </mxCell>
                <mxCell id="40" value="Meeting Fee Payment" style="whiteSpace=wrap;html=1;aspect=fixed;fillColor=#e3c800;fontColor=#000000;strokeColor=#B09500;" parent="1" vertex="1">
                    <mxGeometry x="730" y="470" width="80" height="80" as="geometry"/>
                </mxCell>
                <mxCell id="41" value="Mark Meeting Fee Payment As Paid" style="whiteSpace=wrap;html=1;aspect=fixed;fontColor=#000000;fillColor=#1ba1e2;strokeColor=#006EAF;" parent="1" vertex="1">
                    <mxGeometry x="640" y="570" width="80" height="80" as="geometry"/>
                </mxCell>
                <mxCell id="42" value="&lt;span style=&quot;color: rgb(0 , 0 , 0)&quot;&gt;Meeting&amp;nbsp; Fee Payment Payed&amp;nbsp;&lt;/span&gt;" style="whiteSpace=wrap;html=1;aspect=fixed;fillColor=#fa6800;fontColor=#000000;strokeColor=#C73500;" parent="1" vertex="1">
                    <mxGeometry x="830" y="570" width="80" height="80" as="geometry"/>
                </mxCell>
                <mxCell id="43" value="&lt;span&gt;Mark Meeting Fee As Paid&lt;/span&gt;" style="whiteSpace=wrap;html=1;aspect=fixed;fontColor=#000000;fillColor=#1ba1e2;strokeColor=#006EAF;" parent="1" vertex="1">
                    <mxGeometry x="640" y="320" width="80" height="80" as="geometry"/>
                </mxCell>
                <mxCell id="44" value="&lt;span style=&quot;color: rgb(0 , 0 , 0)&quot;&gt;Meeting&amp;nbsp; Fee Payed&lt;/span&gt;" style="whiteSpace=wrap;html=1;aspect=fixed;fillColor=#fa6800;fontColor=#000000;strokeColor=#C73500;" parent="1" vertex="1">
                    <mxGeometry x="820" y="320" width="80" height="80" as="geometry"/>
                </mxCell>
                <mxCell id="45" value="Buy Subscription" style="whiteSpace=wrap;html=1;aspect=fixed;fontColor=#000000;fillColor=#1ba1e2;strokeColor=#006EAF;" parent="1" vertex="1">
                    <mxGeometry x="40" y="910" width="80" height="80" as="geometry"/>
                </mxCell>
                <mxCell id="46" value="Subscription Payemnt Created&amp;nbsp;" style="whiteSpace=wrap;html=1;aspect=fixed;fillColor=#fa6800;fontColor=#000000;strokeColor=#C73500;" parent="1" vertex="1">
                    <mxGeometry x="230" y="910" width="80" height="80" as="geometry"/>
                </mxCell>
                <mxCell id="47" value="Subscription Payment" style="whiteSpace=wrap;html=1;aspect=fixed;fillColor=#e3c800;fontColor=#000000;strokeColor=#B09500;" parent="1" vertex="1">
                    <mxGeometry x="130" y="960" width="80" height="80" as="geometry"/>
                </mxCell>
                <mxCell id="49" value="Mark As Paid" style="whiteSpace=wrap;html=1;aspect=fixed;fontColor=#000000;fillColor=#1ba1e2;strokeColor=#006EAF;" parent="1" vertex="1">
                    <mxGeometry x="40" y="1010" width="80" height="80" as="geometry"/>
                </mxCell>
                <mxCell id="50" value="&lt;span style=&quot;color: rgb(0 , 0 , 0)&quot;&gt;Subscription Payemnt Paid&amp;nbsp;&lt;/span&gt;" style="whiteSpace=wrap;html=1;aspect=fixed;fillColor=#fa6800;fontColor=#000000;strokeColor=#C73500;" parent="1" vertex="1">
                    <mxGeometry x="230" y="1010" width="80" height="80" as="geometry"/>
                </mxCell>
                <mxCell id="51" value="Create Subscription" style="whiteSpace=wrap;html=1;aspect=fixed;fontColor=#000000;fillColor=#1ba1e2;strokeColor=#006EAF;" parent="1" vertex="1">
                    <mxGeometry x="450" y="990" width="80" height="80" as="geometry"/>
                </mxCell>
                <mxCell id="52" value="&lt;span style=&quot;color: rgb(0 , 0 , 0)&quot;&gt;Subscription Created&lt;/span&gt;" style="whiteSpace=wrap;html=1;aspect=fixed;fillColor=#fa6800;fontColor=#000000;strokeColor=#C73500;" parent="1" vertex="1">
                    <mxGeometry x="630" y="990" width="80" height="80" as="geometry"/>
                </mxCell>
                <mxCell id="53" value="Subscription" style="whiteSpace=wrap;html=1;aspect=fixed;fillColor=#e3c800;fontColor=#000000;strokeColor=#B09500;" parent="1" vertex="1">
                    <mxGeometry x="540" y="1070" width="80" height="80" as="geometry"/>
                </mxCell>
                <mxCell id="54" value="Subscription Payemnt Expired" style="whiteSpace=wrap;html=1;aspect=fixed;fillColor=#fa6800;fontColor=#000000;strokeColor=#C73500;" parent="1" vertex="1">
                    <mxGeometry x="630" y="1080" width="80" height="80" as="geometry"/>
                </mxCell>
                <mxCell id="55" value="&lt;span style=&quot;color: rgb(0 , 0 , 0)&quot;&gt;Expire Subscription Payemnt&lt;/span&gt;" style="whiteSpace=wrap;html=1;aspect=fixed;fillColor=#1ba1e2;fontColor=#ffffff;strokeColor=#006EAF;" parent="1" vertex="1">
                    <mxGeometry x="450" y="1080" width="80" height="80" as="geometry"/>
                </mxCell>
                <mxCell id="56" value="Expire Subscription Renew Payment" style="whiteSpace=wrap;html=1;aspect=fixed;fillColor=#1ba1e2;fontColor=#000000;strokeColor=#006EAF;" parent="1" vertex="1">
                    <mxGeometry x="450" y="1180" width="80" height="80" as="geometry"/>
                </mxCell>
                <mxCell id="57" value="&lt;span style=&quot;color: rgb(0 , 0 , 0)&quot;&gt;Subscription Renew Payment Created&lt;/span&gt;" style="whiteSpace=wrap;html=1;aspect=fixed;fillColor=#fa6800;fontColor=#000000;strokeColor=#C73500;" parent="1" vertex="1">
                    <mxGeometry x="900" y="990" width="80" height="80" as="geometry"/>
                </mxCell>
                <mxCell id="58" value="Buy Subscription Renewal" style="whiteSpace=wrap;html=1;aspect=fixed;fontColor=#000000;fillColor=#1ba1e2;strokeColor=#006EAF;" parent="1" vertex="1">
                    <mxGeometry x="720" y="990" width="80" height="80" as="geometry"/>
                </mxCell>
                <mxCell id="60" value="&lt;span style=&quot;&quot;&gt;Subscription Renewal Payment&lt;/span&gt;" style="whiteSpace=wrap;html=1;aspect=fixed;fontColor=#000000;fillColor=#e3c800;strokeColor=#B09500;" parent="1" vertex="1">
                    <mxGeometry x="810" y="990" width="80" height="80" as="geometry"/>
                </mxCell>
                <mxCell id="62" value="Price List Item Created&amp;nbsp;" style="whiteSpace=wrap;html=1;aspect=fixed;fillColor=#fa6800;fontColor=#000000;strokeColor=#C73500;" parent="1" vertex="1">
                    <mxGeometry x="240" y="1210" width="80" height="80" as="geometry"/>
                </mxCell>
                <mxCell id="63" value="Create Price List Item" style="whiteSpace=wrap;html=1;aspect=fixed;fontColor=#000000;fillColor=#1ba1e2;strokeColor=#006EAF;" parent="1" vertex="1">
                    <mxGeometry x="60" y="1210" width="80" height="80" as="geometry"/>
                </mxCell>
                <mxCell id="64" value="Price List Item" style="whiteSpace=wrap;html=1;aspect=fixed;fontColor=#000000;fillColor=#e3c800;strokeColor=#B09500;" parent="1" vertex="1">
                    <mxGeometry x="150" y="1360" width="80" height="80" as="geometry"/>
                </mxCell>
                <mxCell id="65" value="&lt;span style=&quot;color: rgb(0 , 0 , 0)&quot;&gt;Price List Item Activated&lt;/span&gt;" style="whiteSpace=wrap;html=1;aspect=fixed;fillColor=#fa6800;fontColor=#000000;strokeColor=#C73500;" parent="1" vertex="1">
                    <mxGeometry x="240" y="1400" width="80" height="80" as="geometry"/>
                </mxCell>
                <mxCell id="66" value="Price List Item Deactivated" style="whiteSpace=wrap;html=1;aspect=fixed;fillColor=#fa6800;fontColor=#000000;strokeColor=#C73500;" parent="1" vertex="1">
                    <mxGeometry x="240" y="1500" width="80" height="80" as="geometry"/>
                </mxCell>
                <mxCell id="67" value="&lt;span style=&quot;color: rgb(0 , 0 , 0)&quot;&gt;Price List Item Changed&lt;/span&gt;" style="whiteSpace=wrap;html=1;aspect=fixed;fillColor=#fa6800;fontColor=#000000;strokeColor=#C73500;" parent="1" vertex="1">
                    <mxGeometry x="240" y="1310" width="80" height="80" as="geometry"/>
                </mxCell>
                <mxCell id="68" value="Change Price List Item" style="whiteSpace=wrap;html=1;aspect=fixed;fontColor=#000000;fillColor=#1ba1e2;strokeColor=#006EAF;" parent="1" vertex="1">
                    <mxGeometry x="60" y="1310" width="80" height="80" as="geometry"/>
                </mxCell>
                <mxCell id="69" value="Activate Price List Item" style="whiteSpace=wrap;html=1;aspect=fixed;fontColor=#000000;fillColor=#1ba1e2;strokeColor=#006EAF;" parent="1" vertex="1">
                    <mxGeometry x="60" y="1400" width="80" height="80" as="geometry"/>
                </mxCell>
                <mxCell id="70" value="Deactivate Price List Item" style="whiteSpace=wrap;html=1;aspect=fixed;fontColor=#000000;fillColor=#1ba1e2;strokeColor=#006EAF;" parent="1" vertex="1">
                    <mxGeometry x="60" y="1500" width="80" height="80" as="geometry"/>
                </mxCell>
                <mxCell id="71" value="Register New User" style="whiteSpace=wrap;html=1;aspect=fixed;fillColor=#1ba1e2;fontColor=#000000;strokeColor=#006EAF;" parent="1" vertex="1">
                    <mxGeometry x="40" y="70" width="80" height="80" as="geometry"/>
                </mxCell>
                <mxCell id="72" value="Confirm User Registration" style="whiteSpace=wrap;html=1;aspect=fixed;fontColor=#000000;fillColor=#1ba1e2;strokeColor=#006EAF;" parent="1" vertex="1">
                    <mxGeometry x="40" y="160" width="80" height="80" as="geometry"/>
                </mxCell>
                <mxCell id="73" value="Register New User" style="whiteSpace=wrap;html=1;aspect=fixed;fillColor=#1ba1e2;fontColor=#000000;strokeColor=#006EAF;" parent="1" vertex="1">
                    <mxGeometry x="40" y="70" width="80" height="80" as="geometry"/>
                </mxCell>
                <mxCell id="74" value="Confirm User Registration" style="whiteSpace=wrap;html=1;aspect=fixed;fontColor=#000000;fillColor=#1ba1e2;strokeColor=#006EAF;" parent="1" vertex="1">
                    <mxGeometry x="40" y="160" width="80" height="80" as="geometry"/>
                </mxCell>
                <mxCell id="75" value="Register New User" style="whiteSpace=wrap;html=1;aspect=fixed;fillColor=#1ba1e2;fontColor=#000000;strokeColor=#006EAF;" parent="1" vertex="1">
                    <mxGeometry x="40" y="70" width="80" height="80" as="geometry"/>
                </mxCell>
                <mxCell id="76" value="Confirm User Registration" style="whiteSpace=wrap;html=1;aspect=fixed;fontColor=#000000;fillColor=#1ba1e2;strokeColor=#006EAF;" parent="1" vertex="1">
                    <mxGeometry x="40" y="160" width="80" height="80" as="geometry"/>
                </mxCell>
                <mxCell id="77" value="Register New User" style="whiteSpace=wrap;html=1;aspect=fixed;fillColor=#1ba1e2;fontColor=#000000;strokeColor=#006EAF;" parent="1" vertex="1">
                    <mxGeometry x="40" y="70" width="80" height="80" as="geometry"/>
                </mxCell>
                <mxCell id="78" value="Confirm User Registration" style="whiteSpace=wrap;html=1;aspect=fixed;fontColor=#000000;fillColor=#1ba1e2;strokeColor=#006EAF;" parent="1" vertex="1">
                    <mxGeometry x="40" y="160" width="80" height="80" as="geometry"/>
                </mxCell>
                <mxCell id="79" value="User Registration" style="whiteSpace=wrap;html=1;aspect=fixed;fillColor=#e3c800;fontColor=#000000;strokeColor=#B09500;" parent="1" vertex="1">
                    <mxGeometry x="130" y="160" width="80" height="80" as="geometry"/>
                </mxCell>
                <mxCell id="80" value="&lt;span style=&quot;color: rgb(0 , 0 , 0)&quot;&gt;New User Registered&lt;/span&gt;" style="whiteSpace=wrap;html=1;aspect=fixed;fontColor=#000000;fillColor=#fa6800;strokeColor=#C73500;" parent="1" vertex="1">
                    <mxGeometry x="220" y="70" width="80" height="80" as="geometry"/>
                </mxCell>
                <mxCell id="81" value="Create Meeting Fee" style="whiteSpace=wrap;html=1;aspect=fixed;fontColor=#000000;fillColor=#1ba1e2;strokeColor=#006EAF;" parent="1" vertex="1">
                    <mxGeometry x="640" y="220" width="80" height="80" as="geometry"/>
                </mxCell>
                <mxCell id="82" value="Meeting Fee" style="whiteSpace=wrap;html=1;aspect=fixed;fillColor=#e3c800;fontColor=#000000;strokeColor=#B09500;" parent="1" vertex="1">
                    <mxGeometry x="730" y="220" width="80" height="80" as="geometry"/>
                </mxCell>
                <mxCell id="83" value="Meeting Fee Created" style="whiteSpace=wrap;html=1;aspect=fixed;fillColor=#fa6800;fontColor=#000000;strokeColor=#C73500;" parent="1" vertex="1">
                    <mxGeometry x="820" y="220" width="80" height="80" as="geometry"/>
                </mxCell>
                <mxCell id="84" value="&lt;span&gt;Mark Meeting Fee As Paid&lt;/span&gt;" style="whiteSpace=wrap;html=1;aspect=fixed;fontColor=#000000;fillColor=#1ba1e2;strokeColor=#006EAF;" parent="1" vertex="1">
                    <mxGeometry x="640" y="320" width="80" height="80" as="geometry"/>
                </mxCell>
                <mxCell id="85" value="&lt;span style=&quot;color: rgb(0 , 0 , 0)&quot;&gt;Meeting&amp;nbsp; Fee Payed&lt;/span&gt;" style="whiteSpace=wrap;html=1;aspect=fixed;fillColor=#fa6800;fontColor=#000000;strokeColor=#C73500;" parent="1" vertex="1">
                    <mxGeometry x="820" y="320" width="80" height="80" as="geometry"/>
                </mxCell>
                <mxCell id="86" value="Create Meeting Fee" style="whiteSpace=wrap;html=1;aspect=fixed;fontColor=#000000;fillColor=#1ba1e2;strokeColor=#006EAF;" parent="1" vertex="1">
                    <mxGeometry x="640" y="220" width="80" height="80" as="geometry"/>
                </mxCell>
                <mxCell id="87" value="Meeting Fee" style="whiteSpace=wrap;html=1;aspect=fixed;fillColor=#e3c800;fontColor=#000000;strokeColor=#B09500;" parent="1" vertex="1">
                    <mxGeometry x="730" y="220" width="80" height="80" as="geometry"/>
                </mxCell>
                <mxCell id="88" value="Meeting Fee Created" style="whiteSpace=wrap;html=1;aspect=fixed;fillColor=#fa6800;fontColor=#000000;strokeColor=#C73500;" parent="1" vertex="1">
                    <mxGeometry x="820" y="220" width="80" height="80" as="geometry"/>
                </mxCell>
                <mxCell id="89" value="&lt;span&gt;Mark Meeting Fee As Paid&lt;/span&gt;" style="whiteSpace=wrap;html=1;aspect=fixed;fontColor=#000000;fillColor=#1ba1e2;strokeColor=#006EAF;" parent="1" vertex="1">
                    <mxGeometry x="640" y="320" width="80" height="80" as="geometry"/>
                </mxCell>
                <mxCell id="90" value="&lt;span style=&quot;color: rgb(0 , 0 , 0)&quot;&gt;Meeting&amp;nbsp; Fee Payed&lt;/span&gt;" style="whiteSpace=wrap;html=1;aspect=fixed;fillColor=#fa6800;fontColor=#000000;strokeColor=#C73500;" parent="1" vertex="1">
                    <mxGeometry x="820" y="320" width="80" height="80" as="geometry"/>
                </mxCell>
                <mxCell id="91" value="Meeting Fee Payment" style="whiteSpace=wrap;html=1;aspect=fixed;fillColor=#e3c800;fontColor=#000000;strokeColor=#B09500;" parent="1" vertex="1">
                    <mxGeometry x="730" y="470" width="80" height="80" as="geometry"/>
                </mxCell>
                <mxCell id="92" value="Meeting Fee Payment Created" style="whiteSpace=wrap;html=1;aspect=fixed;fillColor=#fa6800;fontColor=#000000;strokeColor=#C73500;" parent="1" vertex="1">
                    <mxGeometry x="830" y="470" width="80" height="80" as="geometry"/>
                </mxCell>
                <mxCell id="93" value="&lt;span&gt;Mark Meeting Fee As Paid&lt;/span&gt;" style="whiteSpace=wrap;html=1;aspect=fixed;fontColor=#000000;fillColor=#1ba1e2;strokeColor=#006EAF;" vertex="1" parent="1">
                    <mxGeometry x="330" y="870" width="80" height="80" as="geometry"/>
                </mxCell>
                <mxCell id="94" value="Meeting Attendee Fee Paid Domain Event" style="whiteSpace=wrap;html=1;aspect=fixed;fillColor=#fa6800;fontColor=#000000;strokeColor=#C73500;" vertex="1" parent="1">
                    <mxGeometry x="520" y="870" width="80" height="80" as="geometry"/>
                </mxCell>
            </root>
        </mxGraphModel>
    </diagram>
</mxfile>